<?xml version="1.0" encoding="UTF-8" standalone="no" ?>
<!DOCTYPE svg PUBLIC "-//W3C//DTD SVG 1.1//EN" "http://www.w3.org/Graphics/SVG/1.1/DTD/svg11.dtd">
<svg xmlns="http://www.w3.org/2000/svg" xmlns:xlink="http://www.w3.org/1999/xlink" version="1.1" width="150" height="25" viewBox="0 0 150 25" xml:space="preserve">
<desc>Created with Fabric.js 4.6.0</desc>
<defs>
</defs>
<g transform="matrix(0.25 0 0 0.42 75 12.5)" id="LBLm3XAENJYEpwBydoGld"  >
<path style="stroke: none; stroke-width: 1; stroke-dasharray: none; stroke-linecap: butt; stroke-dashoffset: 0; stroke-linejoin: miter; stroke-miterlimit: 4; fill: rgb(2,60,65); fill-rule: nonzero; opacity: 1;" vector-effect="non-scaling-stroke"  transform=" translate(-300, -300)" d="M 285.664 300.003 C 285.664 302.393 283.72999999999996 304.323 281.34 304.323 C 278.953 304.323 277.01899999999995 302.392 277.01899999999995 300.003 C 277.01899999999995 297.614 278.953 295.676 281.34 295.676 C 283.729 295.676 285.664 297.613 285.664 300.003 z M 262.686 295.867 C 260.4 295.867 258.54999999999995 297.721 258.54999999999995 300.00300000000004 C 258.54999999999995 302.27900000000005 260.40099999999995 304.12700000000007 262.686 304.12700000000007 C 264.97499999999997 304.12700000000007 266.822 302.27900000000005 266.822 300.00300000000004 C 266.822 297.721 264.975 295.867 262.686 295.867 z M 244.032 296.052 C 241.848 296.052 240.08100000000002 297.822 240.08100000000002 300.00300000000004 C 240.08100000000002 302.17900000000003 241.848 303.94800000000004 244.032 303.94800000000004 C 246.21 303.94800000000004 247.977 302.17800000000005 247.977 300.00300000000004 C 247.978 297.821 246.21 296.052 244.032 296.052 z M 225.37 296.236 C 223.296 296.236 221.616 297.923 221.616 300.003 C 221.616 302.07099999999997 223.29600000000002 303.764 225.37 303.764 C 227.45000000000002 303.764 229.133 302.072 229.133 300.003 C 229.133 297.923 227.449 296.236 225.37 296.236 z M 206.716 296.427 C 204.746 296.427 203.14600000000002 298.031 203.14600000000002 300.00300000000004 C 203.14600000000002 301.97 204.746 303.57900000000006 206.716 303.57900000000006 C 208.692 303.57900000000006 210.292 301.9700000000001 210.292 300.00300000000004 C 210.292 298.03 208.691 296.427 206.716 296.427 z M 188.062 296.611 C 186.19 296.611 184.68 298.132 184.68 300.003 C 184.68 301.868 186.191 303.382 188.062 303.382 C 189.93 303.382 191.447 301.868 191.447 300.003 C 191.447 298.132 189.93 296.611 188.062 296.611 z M 169.402 296.803 C 167.63799999999998 296.803 166.208 298.233 166.208 299.991 C 166.208 301.76599999999996 167.638 303.197 169.402 303.197 C 171.172 303.197 172.605 301.766 172.605 299.991 C 172.605 298.232 171.172 296.803 169.402 296.803 z M 150.743 296.987 C 149.089 296.987 147.742 298.34000000000003 147.742 300.00300000000004 C 147.742 301.66 149.089 303.00700000000006 150.743 303.00700000000006 C 152.411 303.00700000000006 153.759 301.6600000000001 153.759 300.00300000000004 C 153.758 298.34 152.411 296.987 150.743 296.987 z M 132.092 297.178 C 130.53300000000002 297.178 129.27300000000002 298.442 129.27300000000002 299.991 C 129.27300000000002 301.558 130.53300000000002 302.816 132.092 302.816 C 133.651 302.816 134.911 301.558 134.911 299.991 C 134.911 298.441 133.65 297.178 132.092 297.178 z M 113.438 297.362 C 111.98100000000001 297.362 110.804 298.54900000000004 110.804 300.00300000000004 C 110.804 301.44500000000005 111.98100000000001 302.62500000000006 113.438 302.62500000000006 C 114.895 302.62500000000006 116.069 301.44500000000005 116.069 300.00300000000004 C 116.069 298.549 114.895 297.362 113.438 297.362 z M 94.781 297.56 C 93.42800000000001 297.56 92.33800000000001 298.657 92.33800000000001 299.992 C 92.33800000000001 301.35 93.429 302.44100000000003 94.781 302.44100000000003 C 96.128 302.44100000000003 97.224 301.35 97.224 299.992 C 97.225 298.656 96.128 297.56 94.781 297.56 z M 76.122 297.744 C 74.876 297.744 73.869 298.75100000000003 73.869 299.99100000000004 C 73.869 301.242 74.876 302.25600000000003 76.122 302.25600000000003 C 77.376 302.25600000000003 78.381 301.242 78.381 299.99100000000004 C 78.38 298.751 77.376 297.744 76.122 297.744 z M 57.468 297.929 C 56.324000000000005 297.929 55.403000000000006 298.86499999999995 55.403000000000006 299.99199999999996 C 55.403000000000006 301.13699999999994 56.324000000000005 302.066 57.468 302.066 C 58.61300000000001 302.066 59.536 301.13599999999997 59.536 299.99199999999996 C 59.536 298.864 58.612 297.929 57.468 297.929 z M 38.814 298.125 C 37.775 298.125 36.932 298.96 36.932 299.991 C 36.932 301.034 37.775000000000006 301.88 38.814 301.88 C 39.854 301.88 40.694 301.034 40.694 299.991 C 40.694 298.96 39.854 298.125 38.814 298.125 z M 20.157 298.311 C 19.221 298.311 18.465 299.068 18.465 299.99199999999996 C 18.465 300.93299999999994 19.222 301.69599999999997 20.157 301.69599999999997 C 21.095 301.69599999999997 21.851 300.933 21.851 299.99199999999996 C 21.852 299.067 21.095 298.311 20.157 298.311 z M 1.499 298.501 C 0.6690000000000002 298.501 0 299.16799999999995 0 299.991 C 0 300.825 0.669 301.49899999999997 1.499 301.49899999999997 C 2.331 301.49899999999997 3.004 300.825 3.004 299.991 C 3.004 299.168 2.331 298.501 1.499 298.501 z M 299.997 295.491 C 297.503 295.491 295.482 297.512 295.482 300.003 C 295.482 302.488 297.50300000000004 304.509 299.997 304.509 C 302.494 304.509 304.511 302.488 304.511 300.00300000000004 C 304.511 297.512 302.493 295.491 299.997 295.491 z M 318.656 295.676 C 316.266 295.676 314.329 297.614 314.329 300.003 C 314.329 302.392 316.267 304.323 318.656 304.323 C 321.043 304.323 322.979 302.392 322.979 300.003 C 322.979 297.614 321.043 295.676 318.656 295.676 z M 337.31 295.867 C 335.025 295.867 333.177 297.721 333.177 300.00300000000004 C 333.177 302.27900000000005 335.02500000000003 304.12700000000007 337.31 304.12700000000007 C 339.599 304.12700000000007 341.45 302.27900000000005 341.45 300.00300000000004 C 341.449 297.721 339.599 295.867 337.31 295.867 z M 355.967 296.052 C 353.788 296.052 352.01599999999996 297.822 352.01599999999996 300.00300000000004 C 352.01599999999996 302.17900000000003 353.78799999999995 303.94800000000004 355.967 303.94800000000004 C 358.146 303.94800000000004 359.918 302.17800000000005 359.918 300.00300000000004 C 359.918 297.821 358.146 296.052 355.967 296.052 z M 374.623 296.236 C 372.54699999999997 296.236 370.863 297.928 370.863 300.008 C 370.863 302.07599999999996 372.547 303.763 374.623 303.763 C 376.703 303.763 378.387 302.07599999999996 378.387 300.008 C 378.387 297.929 376.703 296.236 374.623 296.236 z M 393.28 296.427 C 391.301 296.427 389.707 298.031 389.707 300.009 C 389.707 301.97 391.302 303.579 393.28 303.579 C 395.253 303.579 396.849 301.97 396.849 300.009 C 396.85 298.03 395.253 296.427 393.28 296.427 z M 411.934 296.611 C 410.06600000000003 296.611 408.54900000000004 298.132 408.54900000000004 300.003 C 408.54900000000004 301.868 410.06600000000003 303.382 411.934 303.382 C 413.80300000000005 303.382 415.32000000000005 301.868 415.32000000000005 300.003 C 415.319 298.132 413.803 296.611 411.934 296.611 z M 430.591 296.803 C 428.829 296.803 427.394 298.233 427.394 300.009 C 427.394 301.767 428.83 303.197 430.591 303.197 C 432.355 303.197 433.782 301.766 433.782 300.009 C 433.782 298.232 432.354 296.803 430.591 296.803 z M 449.251 296.987 C 447.582 296.987 446.23499999999996 298.34000000000003 446.23499999999996 300.00800000000004 C 446.23499999999996 301.665 447.58199999999994 303.00600000000003 449.251 303.00600000000003 C 450.907 303.00600000000003 452.25399999999996 301.665 452.25399999999996 300.00800000000004 C 452.254 298.34 450.907 296.987 449.251 296.987 z M 467.901 297.178 C 466.345 297.178 465.082 298.442 465.082 300.009 C 465.082 301.559 466.346 302.817 467.901 302.817 C 469.456 302.817 470.723 301.559 470.723 300.009 C 470.724 298.441 469.457 297.178 467.901 297.178 z M 486.561 297.362 C 485.10699999999997 297.362 483.92699999999996 298.54900000000004 483.92699999999996 300.00800000000004 C 483.92699999999996 301.456 485.10699999999997 302.624 486.561 302.624 C 488.012 302.624 489.19 301.456 489.19 300.00800000000004 C 489.189 298.549 488.012 297.362 486.561 297.362 z M 505.218 297.56 C 503.865 297.56 502.772 298.657 502.772 300.009 C 502.772 301.35 503.866 302.44100000000003 505.218 302.44100000000003 C 506.565 302.44100000000003 507.658 301.35 507.658 300.009 C 507.658 298.656 506.564 297.56 505.218 297.56 z M 523.874 297.744 C 522.623 297.744 521.618 298.75100000000003 521.618 300.009 C 521.618 301.242 522.623 302.25600000000003 523.874 302.25600000000003 C 525.1170000000001 302.25600000000003 526.1270000000001 301.242 526.1270000000001 300.009 C 526.127 298.751 525.117 297.744 523.874 297.744 z M 542.525 297.929 C 541.38 297.929 540.457 298.86499999999995 540.457 300.00899999999996 C 540.457 301.13599999999997 541.381 302.066 542.525 302.066 C 543.672 302.066 544.592 301.13599999999997 544.592 300.00899999999996 C 544.593 298.864 543.673 297.929 542.525 297.929 z M 561.182 298.125 C 560.145 298.125 559.302 298.966 559.302 300.009 C 559.302 301.034 560.145 301.88 561.182 301.88 C 562.222 301.88 563.066 301.034 563.066 300.009 C 563.065 298.966 562.222 298.125 561.182 298.125 z M 579.842 298.311 C 578.909 298.311 578.15 299.068 578.15 300.00899999999996 C 578.15 300.93299999999994 578.91 301.69599999999997 579.842 301.69599999999997 C 580.774 301.69599999999997 581.531 300.933 581.531 300.00899999999996 C 581.531 299.067 580.774 298.311 579.842 298.311 z M 598.495 298.501 C 597.664 298.501 596.99 299.17499999999995 596.99 300.00899999999996 C 596.99 300.83099999999996 597.664 301.49899999999997 598.495 301.49899999999997 C 599.33 301.49899999999997 600 300.83099999999996 600 300.00899999999996 C 600 299.175 599.33 298.501 598.495 298.501 z" stroke-linecap="round" />
</g>
</svg>